<svg xmlns="http://www.w3.org/2000/svg" xmlns:xlink="http://www.w3.org/1999/xlink" width="24" height="29" viewBox="0 0 24 29">
  <defs>
    <style>
      .cls-1 {
        fill: url(#linear-gradient);
      }

      .cls-2 {
        fill: url(#linear-gradient-2);
      }

      .cls-3 {
        fill: url(#linear-gradient-3);
      }

      .cls-4 {
        fill: url(#linear-gradient-4);
      }

      .cls-5 {
        fill: url(#linear-gradient-5);
      }

      .cls-6 {
        fill: url(#linear-gradient-6);
      }

      .cls-7 {
        fill: url(#linear-gradient-7);
      }

      .cls-8 {
        fill: url(#linear-gradient-8);
      }

      .cls-9 {
        fill: url(#linear-gradient-9);
      }

      .cls-10 {
        fill: url(#linear-gradient-10);
      }

      .cls-11 {
        fill: url(#linear-gradient-11);
      }

      .cls-12 {
        fill: url(#linear-gradient-12);
      }

      .cls-13 {
        fill: url(#linear-gradient-13);
      }

      .cls-14 {
        fill: url(#linear-gradient-14);
      }

      .cls-15 {
        fill: url(#linear-gradient-15);
      }

      .cls-16 {
        fill: url(#linear-gradient-17);
      }

      .cls-17 {
        fill: url(#linear-gradient-18);
      }

      .cls-18 {
        fill: url(#linear-gradient-19);
      }

      .cls-19 {
        fill: url(#linear-gradient-20);
      }

      .cls-20 {
        fill: url(#linear-gradient-21);
      }

      .cls-21 {
        fill: url(#linear-gradient-22);
      }

      .cls-22 {
        fill: url(#linear-gradient-23);
      }

      .cls-23 {
        fill: url(#linear-gradient-24);
      }

      .cls-24 {
        fill: url(#linear-gradient-25);
      }
    </style>
    <linearGradient id="linear-gradient" x1="0.412" y1="0.261" x2="0.553" y2="1.181" gradientUnits="objectBoundingBox">
      <stop offset="0" stop-color="#fff9f6"/>
      <stop offset="0.197" stop-color="#f8f2ef"/>
      <stop offset="0.492" stop-color="#e6dddb"/>
      <stop offset="0.847" stop-color="#c8bcbb"/>
      <stop offset="1" stop-color="#b9acac"/>
    </linearGradient>
    <linearGradient id="linear-gradient-2" x1="0.385" y1="0.272" x2="0.223" y2="0.044" gradientUnits="objectBoundingBox">
      <stop offset="0" stop-color="#9e9797" stop-opacity="0"/>
      <stop offset="0.311" stop-color="#979090" stop-opacity="0.31"/>
      <stop offset="0.786" stop-color="#817a7a" stop-opacity="0.784"/>
      <stop offset="1" stop-color="#766e6e"/>
    </linearGradient>
    <linearGradient id="linear-gradient-3" x1="0.237" y1="0.495" x2="-0.142" y2="0.163" xlink:href="#linear-gradient-2"/>
    <linearGradient id="linear-gradient-4" x1="0.5" y1="0.51" x2="0.5" y2="0.978" xlink:href="#linear-gradient-2"/>
    <linearGradient id="linear-gradient-5" x1="0.265" y1="0.5" x2="0.573" y2="0.5" gradientUnits="objectBoundingBox">
      <stop offset="0" stop-color="#5a5a5a"/>
      <stop offset="1" stop-color="#433f43"/>
    </linearGradient>
    <linearGradient id="linear-gradient-6" x1="0.407" y1="0.051" x2="0.666" y2="0.431" xlink:href="#linear-gradient-5"/>
    <linearGradient id="linear-gradient-7" x1="-15.073" y1="0.651" x2="-15.626" y2="0.521" xlink:href="#linear-gradient-5"/>
    <linearGradient id="linear-gradient-8" x1="0.467" y1="0.553" x2="0.833" y2="0.506" gradientUnits="objectBoundingBox">
      <stop offset="0" stop-color="#1a1a1a" stop-opacity="0"/>
      <stop offset="1" stop-color="#1a1a1a"/>
    </linearGradient>
    <linearGradient id="linear-gradient-9" x1="-15.343" y1="0.404" x2="-15.343" y2="1.036" xlink:href="#linear-gradient-8"/>
    <linearGradient id="linear-gradient-10" x1="-0.079" y1="0.396" x2="1.03" y2="0.574" xlink:href="#linear-gradient-5"/>
    <linearGradient id="linear-gradient-11" x1="0.106" y1="0.366" x2="0.7" y2="0.966" xlink:href="#linear-gradient-5"/>
    <linearGradient id="linear-gradient-12" x1="0.799" y1="0.675" x2="0.366" y2="0.562" xlink:href="#linear-gradient-8"/>
    <linearGradient id="linear-gradient-13" x1="0.5" y1="0.404" x2="0.5" y2="1.036" xlink:href="#linear-gradient-8"/>
    <linearGradient id="linear-gradient-14" x1="0.248" y1="0.439" x2="0.51" y2="0.586" xlink:href="#linear-gradient-5"/>
    <linearGradient id="linear-gradient-15" x1="0.5" y1="0.509" x2="0.5" y2="1.025" xlink:href="#linear-gradient-8"/>
    <linearGradient id="linear-gradient-17" x1="0.566" y1="0.247" x2="0.872" y2="0.807" xlink:href="#linear-gradient"/>
    <linearGradient id="linear-gradient-18" x1="0.482" y1="0.326" x2="0.8" y2="0.929" xlink:href="#linear-gradient"/>
    <linearGradient id="linear-gradient-19" x1="0.299" y1="0.263" x2="0.596" y2="0.955" xlink:href="#linear-gradient-5"/>
    <linearGradient id="linear-gradient-20" x1="0.294" y1="0.279" x2="1.099" y2="0.69" gradientUnits="objectBoundingBox">
      <stop offset="0" stop-color="#f89580"/>
      <stop offset="1" stop-color="#c4573a"/>
    </linearGradient>
    <linearGradient id="linear-gradient-21" x1="-0.312" y1="0.201" x2="0.814" y2="0.776" xlink:href="#linear-gradient-20"/>
    <linearGradient id="linear-gradient-22" x1="0.464" y1="0.472" x2="0.932" y2="0.844" gradientUnits="objectBoundingBox">
      <stop offset="0" stop-color="#fab1a2"/>
      <stop offset="1" stop-color="#da6e51"/>
    </linearGradient>
    <linearGradient id="linear-gradient-23" x1="0.5" y1="0.447" x2="0.5" y2="1.103" gradientUnits="objectBoundingBox">
      <stop offset="0" stop-color="#c4573a" stop-opacity="0"/>
      <stop offset="0.234" stop-color="#be5539" stop-opacity="0.235"/>
      <stop offset="0.545" stop-color="#ad4e35" stop-opacity="0.545"/>
      <stop offset="0.898" stop-color="#914330" stop-opacity="0.898"/>
      <stop offset="1" stop-color="#883f2e"/>
    </linearGradient>
    <linearGradient id="linear-gradient-24" x1="0.648" y1="0.526" x2="1.152" y2="0.62" xlink:href="#linear-gradient-23"/>
    <linearGradient id="linear-gradient-25" x1="0.282" y1="0.147" x2="0.585" y2="1.012" xlink:href="#linear-gradient-5"/>
  </defs>
  <g id="Group_9193" data-name="Group 9193" transform="translate(-42.59)">
    <path id="Path_9529" data-name="Path 9529" class="cls-1" d="M57.394,330.35H51.788a9.227,9.227,0,0,0-9.2,9.257.955.955,0,0,0,.952.958h22.1a.955.955,0,0,0,.952-.958A9.227,9.227,0,0,0,57.394,330.35Z" transform="translate(-0.001 -311.565)"/>
    <path id="Path_9530" data-name="Path 9530" class="cls-2" d="M222.183,339.607a9.227,9.227,0,0,0-9.2-9.257H207.5v3.366l6.8,6.849h6.926A.955.955,0,0,0,222.183,339.607Z" transform="translate(-155.593 -311.565)"/>
    <path id="Path_9531" data-name="Path 9531" class="cls-3" d="M257.8,330.35H255v10.215h11.048a.955.955,0,0,0,.952-.958A9.227,9.227,0,0,0,257.8,330.35Z" transform="translate(-200.41 -311.565)"/>
    <path id="Path_9532" data-name="Path 9532" class="cls-4" d="M42.59,424.325a.955.955,0,0,0,.952.958h22.1a.955.955,0,0,0,.952-.958,9.266,9.266,0,0,0-.974-4.149H43.564A9.265,9.265,0,0,0,42.59,424.325Z" transform="translate(0 -396.284)"/>
    <path id="Path_9533" data-name="Path 9533" class="cls-5" d="M227.268,396.32l-.949-5.248c-.387-2.141-1.248-2.141-1.635,0l-.949,5.248Z" transform="translate(-170.911 -367.32)"/>
    <path id="Path_9534" data-name="Path 9534" class="cls-6" d="M213.219,355.265l-1.635-2.494h4.905l-1.635,2.494A.976.976,0,0,1,213.219,355.265Z" transform="translate(-159.447 -332.711)"/>
    <path id="Path_9535" data-name="Path 9535" class="cls-7" d="M50.021,333.36,52.489,343.4H43.542a.955.955,0,0,1-.952-.958A9.244,9.244,0,0,1,50.021,333.36Z" transform="translate(0 -314.404)"/>
    <path id="Path_9536" data-name="Path 9536" class="cls-8" d="M50.021,333.36,52.489,343.4H43.542a.955.955,0,0,1-.952-.958A9.244,9.244,0,0,1,50.021,333.36Z" transform="translate(0 -314.404)"/>
    <path id="Path_9537" data-name="Path 9537" class="cls-9" d="M42.592,420.316a.955.955,0,0,0,.952.958h8.947l-1.314-5.349H43.691A9.249,9.249,0,0,0,42.592,420.316Z" transform="translate(-0.002 -392.274)"/>
    <path id="Path_9538" data-name="Path 9538" class="cls-10" d="M139.6,333.36a9.066,9.066,0,0,0-.973.249l-1.053,3.211a.829.829,0,0,0,.047.63l2.991,5.953h1.457Z" transform="translate(-89.576 -314.404)"/>
    <path id="Path_9539" data-name="Path 9539" class="cls-11" d="M294.66,333.36,292.192,343.4h8.947a.955.955,0,0,0,.952-.958A9.244,9.244,0,0,0,294.66,333.36Z" transform="translate(-235.501 -314.404)"/>
    <path id="Path_9540" data-name="Path 9540" class="cls-12" d="M294.66,333.36,292.192,343.4h8.947a.955.955,0,0,0,.952-.958A9.244,9.244,0,0,0,294.66,333.36Z" transform="translate(-235.501 -314.404)"/>
    <path id="Path_9541" data-name="Path 9541" class="cls-13" d="M302.092,420.316a.955.955,0,0,1-.952.958h-8.947l1.314-5.349h7.485A9.248,9.248,0,0,1,302.092,420.316Z" transform="translate(-235.502 -392.274)"/>
    <path id="Path_9542" data-name="Path 9542" class="cls-14" d="M295.633,333.609a9.069,9.069,0,0,0-.973-.249L292.192,343.4h1.456l2.991-5.953a.829.829,0,0,0,.047-.63Z" transform="translate(-235.501 -314.404)"/>
    <path id="Path_9543" data-name="Path 9543" class="cls-15" d="M144.454,415.928l2.687,5.348H148.6l-1.314-5.348Z" transform="translate(-96.109 -392.277)"/>
    <path id="Path_9544" data-name="Path 9544" class="cls-15" d="M293.505,415.928l-1.314,5.348h1.457l2.687-5.348Z" transform="translate(-235.5 -392.277)"/>
    <path id="Path_9545" data-name="Path 9545" class="cls-16" d="M176.178,314.012l-2.062,2.076a.4.4,0,0,1-.621-.07l-1.957-3.133a.518.518,0,0,1,.071-.639l.657-.662h3.912Z" transform="translate(-121.588 -293.867)"/>
    <path id="Path_9546" data-name="Path 9546" class="cls-17" d="M255,314.012l2.062,2.076a.4.4,0,0,0,.621-.07l1.957-3.133a.518.518,0,0,0-.071-.639l-.657-.662H255Z" transform="translate(-200.41 -293.867)"/>
    <path id="Path_9547" data-name="Path 9547" class="cls-18" d="M125.85,4.754a8.464,8.464,0,0,0-15.215,0l-.008.017a5.835,5.835,0,0,0-.562,2.9l.1,2.711a.5.5,0,0,0,1.006-.03V7.679a1.824,1.824,0,0,1,1.809-1.83H113a6.724,6.724,0,0,1,4.723,1.929.741.741,0,0,0,1.034,0,6.724,6.724,0,0,1,4.723-1.929h.019a1.824,1.824,0,0,1,1.809,1.83v2.67a.5.5,0,0,0,1.006.03l.1-2.711a5.835,5.835,0,0,0-.562-2.9l-.008-.017Z" transform="translate(-63.653)"/>
    <path id="Path_9548" data-name="Path 9548" class="cls-19" d="M96.157,165.955a2.5,2.5,0,0,1,1.91-2.432.469.469,0,0,1,.572.461v3.942a.469.469,0,0,1-.572.461A2.5,2.5,0,0,1,96.157,165.955Z" transform="translate(-50.541 -154.213)"/>
    <path id="Path_9549" data-name="Path 9549" class="cls-20" d="M372.39,165.955a2.5,2.5,0,0,0-1.91-2.432.469.469,0,0,0-.572.461v3.942a.469.469,0,0,0,.572.461A2.5,2.5,0,0,0,372.39,165.955Z" transform="translate(-308.826 -154.213)"/>
    <path id="Path_9550" data-name="Path 9550" class="cls-21" d="M135.081,35.067a7.2,7.2,0,0,0-7.18,7.227V46a7.181,7.181,0,1,0,14.361,0V42.294A7.2,7.2,0,0,0,135.081,35.067Z" transform="translate(-80.491 -33.073)"/>
    <path id="Path_9555" data-name="Path 9555" d="M178.568,185.929a1.047,1.047,0,0,1-1.043-1.05v-.539a1.044,1.044,0,1,1,2.087,0v.539A1.047,1.047,0,0,1,178.568,185.929Z" transform="translate(-127.312 -172.868)"/>
    <path id="Path_9556" data-name="Path 9556" d="M296.576,185.929a1.047,1.047,0,0,1-1.043-1.05v-.539a1.044,1.044,0,1,1,2.087,0v.539A1.047,1.047,0,0,1,296.576,185.929Z" transform="translate(-238.653 -172.868)"/>
    <path id="Path_9557" data-name="Path 9557" class="cls-22" d="M231.024,205.572h-.793a1.067,1.067,0,0,1-1.046-1.257l.373-2.109a.56.56,0,0,1,.551-.464h1.039a.56.56,0,0,1,.551.464l.373,2.109A1.067,1.067,0,0,1,231.024,205.572Z" transform="translate(-176.037 -190.27)"/>
    <path id="Path_9558" data-name="Path 9558" class="cls-23" d="M231.024,205.572h-.793a1.067,1.067,0,0,1-1.046-1.257l.373-2.109a.56.56,0,0,1,.551-.464h1.039a.56.56,0,0,1,.551.464l.373,2.109A1.067,1.067,0,0,1,231.024,205.572Z" transform="translate(-176.037 -190.27)"/>
    <path id="Path_9560" data-name="Path 9560" class="cls-24" d="M129.443,37.59l-.082-.786a8.009,8.009,0,0,0-15.818,0l-.082.786a1.058,1.058,0,0,0,1.242,1.125,2.514,2.514,0,0,0,.629-.192,2.417,2.417,0,0,0,.709-.489.379.379,0,0,1,.409-.084,1.586,1.586,0,0,0,1.251-.025,1.479,1.479,0,0,0,.81-.913.365.365,0,0,1,.326-.25,2.5,2.5,0,0,0,.843-.218,2.346,2.346,0,0,0,1.4-2.067.361.361,0,0,1,.141-.275l.061-.049a.272.272,0,0,1,.349,0l.061.049a.361.361,0,0,1,.14.275,2.346,2.346,0,0,0,1.4,2.067,2.505,2.505,0,0,0,.843.218.365.365,0,0,1,.326.25,1.479,1.479,0,0,0,.81.913,1.586,1.586,0,0,0,1.251.025.379.379,0,0,1,.409.084,2.418,2.418,0,0,0,.709.489,2.515,2.515,0,0,0,.629.192A1.058,1.058,0,0,0,129.443,37.59Zm-13.237-2.665.009,0,0,.021Zm10.478.017,0-.021.01,0Z" transform="translate(-66.862 -28.343)"/>
  </g>
</svg>
